<?xml version="1.0" encoding="UTF-8"?><!DOCTYPE svg PUBLIC "-//W3C//DTD SVG 1.1//EN" "http://www.w3.org/Graphics/SVG/1.1/DTD/svg11.dtd"><svg xmlns="http://www.w3.org/2000/svg" xmlns:xlink="http://www.w3.org/1999/xlink"><symbol id="icon-close" viewBox="0 0 23 23">
<path d="M20.8487 1.37761e-06L0 20.8487L2.15131 23L23 2.15131L20.8487 1.37761e-06Z" fill="white"/>
<path d="M2.15131 0L0 2.15131L20.8487 23L23 20.8487L2.15131 0Z" fill="white"/>
</symbol><symbol id="icon-editor-contrast" viewBox="-35.422 -7.96 31.92 31.92">
  <path fill="#231F20" d="M-19.462-3.96c6.595,0,11.96,5.365,11.96,11.96s-5.365,11.96-11.96,11.96S-31.422,14.595-31.422,8 S-26.057-3.96-19.462-3.96 M-19.462-7.96c-8.814,0-15.96,7.145-15.96,15.96c0,8.813,7.146,15.96,15.96,15.96S-3.502,16.813-3.502,8 C-3.502-0.815-10.648-7.96-19.462-7.96L-19.462-7.96z"/>
  <path d="M-19.462,16.331c4.706,0,8.52-3.813,8.52-8.52c0-4.705-3.813-8.519-8.52-8.519"/>
</symbol><symbol id="icon-editor-crop" viewBox="0 0 48 48">
  <path fill="none" d="M0,0h48v48H0V0z"/>
  <path d="M34,30h4V14c0-2.21-1.79-4-4-4H18v4h16V30z M14,34V2h-4v8H2v4h8v20c0,2.21,1.79,4,4,4h20v8h4v-8h8v-4H14z"/>
</symbol><symbol id="icon-editor-diagram-fill" viewBox="22.5 69.048 253 253">
  <path fill="#231F20" d="M149,69.048c-69.864,0-126.5,56.636-126.5,126.5c0,69.864,56.636,126.5,126.5,126.5 s126.5-56.636,126.5-126.5C275.5,125.685,218.864,69.048,149,69.048z M149,306.264c-60.844,0-110.167-49.323-110.167-110.167 C38.833,135.253,88.156,85.93,149,85.93c60.843,0,110.167,49.323,110.167,110.167C259.167,256.941,209.843,306.264,149,306.264z"/>
</symbol><symbol id="icon-editor-fill" viewBox="0 0 48 48">
  <path fill="none" d="M0,0h48v48H0V0z"/>
  <path d="M33.12,17.88L15.24,0l-2.83,2.83l4.76,4.76L6.88,17.88c-1.17,1.17-1.17,3.07,0,4.24l11,11C18.46,33.71,19.23,34,20,34 s1.54-0.29,2.12-0.88l11-11C34.29,20.95,34.29,19.05,33.12,17.88z M10.41,20L20,10.42L29.59,20H10.41z M38,23c0,0-4,4.33-4,7 c0,2.21,1.79,4,4,4s4-1.79,4-4C42,27.33,38,23,38,23z"/>
  <rect y="40" width="48" height="3"/>
</symbol><symbol id="icon-facebook" viewBox="0 0 9 18">
<path d="M6.50865 3.19324H9V0H6.02076C2.76125 0.171067 1.59862 2.27138 2.07612 5.81626H0V9.15206H2.07612V18H6.02076V9.15206H8.97924V5.81626H6.01038C5.98962 4.81837 5.96886 3.52587 6.50865 3.19324Z" fill="#D22856"/>
</symbol><symbol id="icon-heart" viewBox="521.939 473.064 12.545 11.99">
  <g>
    <path d="M528.174,485.055c-0.212,0-0.412-0.091-0.552-0.249c-3.798-4.324-4.644-5.298-4.858-5.572l-0.004,0.0 c-0.529-0.675-0.821-1.518-0.821-2.373c0-2.095,1.704-3.799,3.799-3.799c0.934,0,1.804,0.32,2.484,0.898 c0.696-0.578,1.56-0.898,2.463-0.898c2.095,0,3.799,1.704,3.799,3.799c0,0.909-0.318,1.754-0.896,2.381l-4.86,5.561 C528.587,484.964,528.386,485.055,528.174,485.055L528.174,485.055z M523.929,478.349c0.208,0.255,2.471,2.839,4.243,4.858 l4.323-4.944c0.34-0.369,0.52-0.86,0.52-1.399c0-1.285-1.045-2.331-2.33-2.331c-0.729,0-1.421,0.344-1.9,0.943 c-0.142,0.178-0.353,0.267-0.585,0.275c-0.227-0.003-0.439-0.111-0.575-0.294c-0.441-0.587-1.129-0.925-1.887-0.925 c-1.285,0-2.33,1.046-2.33,2.331c0,0.678,0.275,1.171,0.507,1.467C523.919,478.336,523.925,478.342,523.929,478.349z"/>
  </g>
</symbol><symbol id="icon-mail" viewBox="0 0 59 59">
<rect width="61" height="61" fill="#E5E5E5"/>
<path d="M35.9101 24.6807C37.1101 23.7521 36.8201 23 35.2601 23H24.7301C23.1701 23 22.8801 23.7614 24.0701 24.6807L27.8201 27.5779C28.441 28.0289 29.2067 28.274 29.9951 28.274C30.7834 28.274 31.5491 28.0289 32.1701 27.5779L35.9101 24.6807Z" fill="#D22856"/>
<path d="M32.9101 29.5L30.7001 31.2457C30.6191 31.2933 30.5316 31.3308 30.4401 31.3571L30.3401 31.4036C30.2314 31.4458 30.117 31.4739 30.0001 31.4871L29.6701 31.4314L29.5501 31.3571C29.4648 31.3229 29.3842 31.2792 29.3101 31.2271L27.0801 29.5L23.1801 26.5286C22.0001 25.6 21.0001 26.0271 21.0001 27.4757V33.335C20.9974 33.6825 21.0685 34.0272 21.2093 34.3492C21.3501 34.6712 21.5579 34.9643 21.8207 35.2118C22.0834 35.4592 22.3962 35.6562 22.7409 35.7915C23.0857 35.9267 23.4558 35.9976 23.8301 36H36.1501C36.526 36 36.8983 35.9309 37.2454 35.7968C37.5924 35.6626 37.9075 35.466 38.1724 35.2183C38.4373 34.9706 38.6469 34.6767 38.7889 34.3534C38.9309 34.0302 39.0027 33.6841 39.0001 33.335V27.4757C39.0001 26.0271 38.0001 25.6186 36.8201 26.5471L32.9101 29.5Z" fill="#D22856"/>
</symbol><symbol id="icon-map-marker" viewBox="0 0 35.983 35.983">
  <circle fill="#FFFFFF" cx="17.991" cy="17.991" r="17.991"/>
  <circle fill="#D22856" cx="17.991" cy="17.991" r="7.866"/>
</symbol><symbol id="icon-menu-burger" viewBox="0 0 49.945 24.007">
  <g id="miu">
    <g id="editor_list_view_hambuger_menu_glyph">
      <g>
        <path id="path-1" fill="#FFFFFF" d="M1.137,0C0.51,0,0,0.428,0,1.01v1.981c0,0.558,0.494,1.01,1.139,1.01h47.671 c0.628,0,1.138-0.428,1.138-1.01V1.01c0-0.558-0.494-1.01-1.138-1.01H1.137z M1.137,10.003C0.51,10.003,0,10.431,0,11.013v1.98 c0,0.557,0.494,1.01,1.139,1.01h47.671c0.628,0,1.138-0.428,1.138-1.01v-1.98c0-0.558-0.494-1.01-1.138-1.01H1.137z M1.137,20.005C0.51,20.005,0,20.434,0,21.016v1.981c0,0.557,0.494,1.01,1.139,1.01h47.671c0.628,0,1.138-0.428,1.138-1.01 v-1.981c0-0.558-0.494-1.011-1.138-1.011H1.137z"/>
      </g>
      <g>
        <path id="path-1_1_" fill="#FFFFFF" d="M1.137,0C0.51,0,0,0.428,0,1.01v1.981c0,0.558,0.494,1.01,1.139,1.01h47.671 c0.628,0,1.138-0.428,1.138-1.01V1.01c0-0.558-0.494-1.01-1.138-1.01H1.137z M1.137,10.003C0.51,10.003,0,10.431,0,11.013v1.98 c0,0.557,0.494,1.01,1.139,1.01h47.671c0.628,0,1.138-0.428,1.138-1.01v-1.98c0-0.558-0.494-1.01-1.138-1.01H1.137z M1.137,20.005C0.51,20.005,0,20.434,0,21.016v1.981c0,0.557,0.494,1.01,1.139,1.01h47.671c0.628,0,1.138-0.428,1.138-1.01 v-1.981c0-0.558-0.494-1.011-1.138-1.011H1.137z"/>
      </g>
    </g>
  </g>
</symbol><symbol id="icon-menu-cross" viewBox="0 0 23.867 23.867">
  <path fill="#FFFFFF" d="M15.087,11.933l8.56-8.559c0.293-0.293,0.293-0.768,0-1.061L21.554,0.22C21.414,0.079,21.223,0,21.023,0 c-0.199,0-0.391,0.079-0.529,0.22l-8.561,8.56l-8.56-8.56c-0.282-0.282-0.78-0.282-1.061,0L0.22,2.313 c-0.293,0.293-0.293,0.768,0,1.061l8.56,8.559l-8.56,8.559c-0.293,0.293-0.293,0.768,0,1.062l2.093,2.094 c0.141,0.142,0.331,0.22,0.53,0.22c0.199,0,0.39-0.078,0.53-0.22l8.561-8.56l8.56,8.56c0.141,0.142,0.332,0.22,0.53,0.22 c0.199,0,0.39-0.078,0.53-0.22l2.093-2.094c0.293-0.294,0.293-0.769,0-1.062L15.087,11.933z"/>
</symbol><symbol id="icon-no" viewBox="0 0 26.752 26.752">
  <path d="M15.497,13.376L26.312,2.562c0.586-0.585,0.586-1.535,0-2.121s-1.535-0.586-2.121,0L13.376,11.255L2.562,0.439 c-0.586-0.586-1.535-0.586-2.121,0c-0.586,0.585-0.586,1.535,0,2.121l10.814,10.815L0.439,24.19c-0.586,0.586-0.586,1.535,0,2.121 c0.293,0.293,0.677,0.439,1.061,0.439s0.768-0.146,1.061-0.439l10.815-10.814L24.19,26.312c0.293,0.293,0.677,0.439,1.061,0.439 s0.768-0.146,1.061-0.439c0.586-0.586,0.586-1.535,0-2.121L15.497,13.376z"/>
</symbol><symbol id="icon-phone" viewBox="0 0 59 59">
<rect width="61" height="61" fill="#E5E5E5"/>
<path d="M30.0408 20C26.4636 20 22.9068 20.6084 21.582 21.8155C20.6245 22.9164 20.0702 24.2821 20.0023 25.7072C19.9992 25.7619 19.9992 25.8167 20.0023 25.8714C20.0023 26.0814 20.0904 26.2828 20.2471 26.4313C20.4038 26.5798 20.6164 26.6633 20.838 26.6633L24.0788 26.4122H24.1604C24.2688 26.4109 24.3759 26.3895 24.4755 26.349C24.5752 26.3085 24.6654 26.2498 24.7411 26.1763C24.8168 26.1027 24.8765 26.0158 24.9168 25.9204C24.957 25.825 24.977 25.7231 24.9757 25.6203V24.0463C24.9743 23.9313 24.9971 23.8173 25.0426 23.7107C25.088 23.6041 25.1554 23.5072 25.2407 23.4254C25.326 23.3437 25.4276 23.2788 25.5395 23.2345C25.6515 23.1903 25.7716 23.1675 25.8929 23.1675H34.046C34.2919 23.1675 34.5278 23.2601 34.7017 23.4249C34.8757 23.5897 34.9734 23.8132 34.9734 24.0463V25.601C34.9733 25.8077 35.0585 26.0063 35.2109 26.1542C35.3632 26.3022 35.5706 26.3878 35.7887 26.3929H35.8804L39.162 26.644C39.2717 26.644 39.3804 26.6235 39.4818 26.5837C39.5832 26.5439 39.6753 26.4856 39.7529 26.412C39.8305 26.3385 39.8921 26.2512 39.9341 26.1551C39.9761 26.0591 39.9977 25.9561 39.9977 25.8521C40.0008 25.7974 40.0008 25.7426 39.9977 25.6879C39.9242 24.2761 39.378 22.9231 38.4384 21.8252C37.1951 20.6084 33.6179 20 30.0408 20ZM30.0408 30.3039C29.7102 30.3039 29.3871 30.3968 29.1122 30.5708C28.8373 30.7449 28.6231 30.9922 28.4966 31.2816C28.3701 31.571 28.337 31.8894 28.4015 32.1966C28.466 32.5039 28.6252 32.7861 28.8589 33.0075C29.0927 33.229 29.3905 33.3799 29.7147 33.441C30.0389 33.5021 30.375 33.4707 30.6804 33.3509C30.9858 33.231 31.2468 33.028 31.4305 32.7676C31.6141 32.5071 31.7121 32.2009 31.7121 31.8877C31.7135 31.6793 31.6712 31.4728 31.5877 31.2801C31.5042 31.0874 31.3811 30.9123 31.2256 30.7649C31.0702 30.6176 30.8854 30.501 30.682 30.4219C30.4786 30.3427 30.2606 30.3027 30.0408 30.3039ZM28.7872 26.7598V25.7942C28.7872 25.538 28.6799 25.2924 28.4887 25.1113C28.2976 24.9302 28.0384 24.8285 27.7681 24.8285C27.4978 24.8285 27.2386 24.9302 27.0475 25.1113C26.8563 25.2924 26.749 25.538 26.749 25.7942V26.7598L21.0214 32.4478C20.819 32.6306 20.6584 32.8511 20.5497 33.0953C20.441 33.3395 20.3865 33.6023 20.3896 33.8673V35.4511C20.3896 35.872 20.5653 36.2758 20.8785 36.5744C21.1917 36.8729 21.6168 37.0419 22.061 37.0445H22.4788V38.0102C22.4788 38.1402 22.5058 38.2689 22.5583 38.389C22.6108 38.5091 22.6878 38.6182 22.7848 38.7101C22.8818 38.802 22.9969 38.8749 23.1237 38.9247C23.2504 38.9744 23.3862 39 23.5234 39C23.6606 39 23.7964 38.9744 23.9232 38.9247C24.0499 38.8749 24.1651 38.802 24.2621 38.7101C24.3591 38.6182 24.436 38.5091 24.4885 38.389C24.541 38.2689 24.568 38.1402 24.568 38.0102V37.0445H35.4727V38.0102C35.4727 38.2727 35.5828 38.5245 35.7787 38.7101C35.9746 38.8957 36.2403 39 36.5173 39C36.7944 39 37.0601 38.8957 37.256 38.7101C37.4519 38.5245 37.562 38.2727 37.562 38.0102V37.0445H37.9798C38.2001 37.0445 38.4183 37.0032 38.6218 36.923C38.8252 36.8428 39.0099 36.7253 39.1653 36.5772C39.3206 36.4291 39.4435 36.2534 39.5269 36.0601C39.6103 35.8669 39.6525 35.6599 39.6512 35.4511V33.8673C39.6556 33.603 39.6027 33.3406 39.4958 33.0964C39.3888 32.8523 39.2301 32.6315 39.0295 32.4478L33.3835 26.7598V25.7942C33.3835 25.5316 33.2735 25.2799 33.0776 25.0942C32.8817 24.9086 32.616 24.8043 32.3389 24.8043C32.0619 24.8043 31.7962 24.9086 31.6003 25.0942C31.4044 25.2799 31.2943 25.5316 31.2943 25.7942V26.7598H28.7872ZM30.0408 28.6912C30.7019 28.6912 31.3482 28.877 31.8979 29.225C32.4476 29.5731 32.8761 30.0678 33.1291 30.6466C33.3821 31.2253 33.4483 31.8622 33.3193 32.4766C33.1903 33.0911 32.8719 33.6555 32.4044 34.0984C31.937 34.5414 31.3413 34.8431 30.6929 34.9653C30.0445 35.0875 29.3724 35.0248 28.7615 34.7851C28.1507 34.5453 27.6287 34.1393 27.2614 33.6185C26.8941 33.0976 26.698 32.4852 26.698 31.8587C26.698 31.0186 27.0502 30.213 27.6771 29.619C28.304 29.0249 29.1542 28.6912 30.0408 28.6912Z" fill="#D22856"/>
</symbol><symbol id="icon-quotes" viewBox="0 0 78.672 63.789">
  <g>
    <path d="M34.967,7.063L30.713,0C28.272,1.495,0,12.207,0,39.617c0,7.231,0.336,24.172,18.9,24.172 c11.187,0,13.94-10.279,13.94-13.584c0-21.977-21.382-14.177-21.382-14.177C11.458,17.957,31.263,9.184,34.967,7.063z"/>
  </g>
  <g>
    <path d="M78.672,7.063L74.418,0c-2.44,1.495-30.713,12.207-30.713,39.617c0,7.231,0.337,24.172,18.9,24.172 c11.187,0,13.939-10.279,13.939-13.584c0-21.977-21.381-14.177-21.381-14.177C55.165,17.957,74.969,9.184,78.672,7.063z"/>
  </g>
</symbol><symbol id="icon-review-arrow-left" viewBox="0 0 21.706 41.719">
  <path d="M2.045,20.859L21.458,1.446c0.331-0.331,0.331-0.867,0-1.198c-0.33-0.331-0.867-0.331-1.197,0L0.248,20.261 c-0.331,0.33-0.331,0.867,0,1.197l20.013,20.013c0.164,0.165,0.382,0.248,0.599,0.248s0.434-0.083,0.599-0.248 c0.331-0.331,0.331-0.867,0-1.198L2.045,20.859z"/>
</symbol><symbol id="icon-review-arrow-right" viewBox="0 0 21.706 41.719">
  <path d="M19.661,20.859L0.248,1.446c-0.331-0.331-0.331-0.867,0-1.198c0.33-0.331,0.867-0.331,1.197,0l20.013,20.012 c0.33,0.33,0.33,0.867,0,1.197L1.445,41.471c-0.164,0.165-0.382,0.248-0.599,0.248s-0.434-0.083-0.599-0.248 c-0.331-0.331-0.331-0.867,0-1.198L19.661,20.859z"/>
</symbol><symbol id="icon-timer" viewBox="0 0 298 345.097">
  <path d="M264.568,102.055l5.355-5.355c7.717-7.717,9.124-18.938,3.126-24.935c-5.997-5.997-17.217-4.59-24.934,3.127l-5.386,5.385 C221.768,63.292,196.11,51.875,168,48.297v-9.583h7.658c10.914,0,19.843-8.711,19.843-19.357S186.573,0,175.659,0h-53.317  c-10.913,0-19.842,8.711-19.842,19.357s8.929,19.357,19.842,19.357H130v9.583C56.681,57.629,0,120.244,0,196.097  c0,82.291,66.709,149,149,149c82.29,0,149-66.709,149-149C298,160.434,285.465,127.703,264.568,102.055z M149,306.264 c-60.844,0-110.167-49.323-110.167-110.167S88.156,85.93,149,85.93c60.843,0,110.167,49.323,110.167,110.167  S209.843,306.264,149,306.264z"/>
</symbol><symbol id="icon-twitter" viewBox="0 0 18 14">
<path d="M11.5641 0.168904C12.2458 -0.0461515 12.9837 -0.0560928 13.6719 0.140507C14.3602 0.337107 14.9633 0.730138 15.3947 1.26319C16.1053 1.05385 16.8055 0.815959 17.5263 0.606617C17.5164 0.925848 17.4299 1.23907 17.2732 1.52372C17.1165 1.80837 16.8935 2.05738 16.6201 2.2528C16.8726 2.27877 17.1281 2.25112 17.3673 2.17197C17.6064 2.09281 17.8228 1.96424 18 1.79606C17.901 2.20987 17.6999 2.59695 17.4123 2.92708C17.1247 3.2572 16.7585 3.52144 16.3421 3.69916C16.095 9.96988 12.9748 14.1662 5.65332 13.9949H5.14874C4.70595 13.9949 0.731121 13.5667 0 12.2441C1.75201 12.4899 3.53888 12.0976 4.98398 11.1498C3.95423 10.8643 2.13158 10.7026 1.82265 8.40934C2.2108 8.54337 2.6321 8.57306 3.03776 8.49498C1.76087 7.70519 0.339817 7.0391 0.422197 4.99327C0.819634 5.29882 1.3269 5.45507 1.84325 5.43098C1.10183 5.20261 -0.24714 2.30989 0.895881 0.825474C2.82151 2.54778 4.86041 4.17493 8.48512 4.3367C8.71167 2.20522 9.68993 0.777896 11.5641 0.168904Z" fill="#D22856"/>
</symbol><symbol id="icon-yes" viewBox="-82.357 4.875 21.698 16.09">
  <path d="M-60.953,5.167c-0.391-0.391-1.023-0.391-1.414,0L-75.75,18.551l-4.9-4.9c-0.391-0.391-1.023-0.391-1.414,0 s-0.391,1.023,0,1.414l5.607,5.607c0.195,0.195,0.451,0.293,0.707,0.293s0.512-0.098,0.707-0.293l14.09-14.0 C-60.562,6.191-60.562,5.558-60.953,5.167z"/>
</symbol><symbol id="icon-youtube" viewBox="0 0 15 13">
<path d="M1.83356 12.8089C1.64633 12.9278 1.42471 12.9941 1.19626 12.9996C0.967817 13.0051 0.74263 12.9495 0.548717 12.8398C0.354804 12.7301 0.200724 12.571 0.105646 12.3824C0.010569 12.1938 -0.0213097 11.984 0.0139762 11.779V1.22097C-0.0213097 1.01605 0.010569 0.806234 0.105646 0.617628C0.200724 0.429021 0.354804 0.269949 0.548717 0.1602C0.74263 0.0504516 0.967817 -0.00512927 1.19626 0.000372265C1.42471 0.0058738 1.64633 0.0722149 1.83356 0.191142L14.2333 5.69284C15.2556 6.13817 15.2556 6.86183 14.2333 7.30716L1.83356 12.8089Z" fill="#D22856"/>
</symbol></svg>